<mxfile host="app.diagrams.net" agent="Mozilla/5.0 (Windows NT 10.0; Win64; x64) AppleWebKit/537.36 (KHTML, like Gecko) Chrome/129.0.0.0 Safari/537.36" version="24.7.16">
  <diagram name="Page-1" id="lDeib4cnhQOom3pcmBpX">
    <mxGraphModel dx="1710" dy="609" grid="1" gridSize="10" guides="1" tooltips="1" connect="1" arrows="1" fold="1" page="1" pageScale="1" pageWidth="850" pageHeight="1100" math="0" shadow="0">
      <root>
        <mxCell id="0" />
        <mxCell id="1" parent="0" />
        <mxCell id="qHMNKw68laCFIDu4vdMn-2" value="&lt;p style=&quot;margin:0px;margin-top:4px;margin-left:5px;text-align:left;&quot;&gt;interaction ManageUserProfile&lt;/p&gt;" style="html=1;shape=mxgraph.sysml.package;overflow=fill;labelX=201;align=left;spacingLeft=5;verticalAlign=top;spacingTop=-3;" parent="1" vertex="1">
          <mxGeometry x="10" y="40" width="830" height="770" as="geometry" />
        </mxCell>
        <mxCell id="qHMNKw68laCFIDu4vdMn-5" value="System Admin" style="shape=umlActor;html=1;verticalLabelPosition=bottom;verticalAlign=top;align=center;" parent="1" vertex="1">
          <mxGeometry x="40" y="240" width="30" height="60" as="geometry" />
        </mxCell>
        <mxCell id="qHMNKw68laCFIDu4vdMn-6" value="&lt;u&gt;:ManageUserProfile&lt;/u&gt;" style="rounded=0;whiteSpace=wrap;html=1;" parent="1" vertex="1">
          <mxGeometry x="310" y="240" width="130" height="80" as="geometry" />
        </mxCell>
        <mxCell id="qHMNKw68laCFIDu4vdMn-7" value="" style="shape=umlBoundary;whiteSpace=wrap;html=1;" parent="1" vertex="1">
          <mxGeometry x="410" y="245" width="24" height="20" as="geometry" />
        </mxCell>
        <mxCell id="qHMNKw68laCFIDu4vdMn-10" value="" style="endArrow=none;html=1;rounded=0;exitX=0;exitY=0.5;exitDx=0;exitDy=0;entryX=0.084;entryY=0.312;entryDx=0;entryDy=0;entryPerimeter=0;" parent="1" source="qHMNKw68laCFIDu4vdMn-6" target="qHMNKw68laCFIDu4vdMn-2" edge="1">
          <mxGeometry width="50" height="50" relative="1" as="geometry">
            <mxPoint x="330" y="290" as="sourcePoint" />
            <mxPoint x="110.32000000000005" y="280.39" as="targetPoint" />
          </mxGeometry>
        </mxCell>
        <mxCell id="qHMNKw68laCFIDu4vdMn-11" value="" style="endArrow=classic;html=1;rounded=0;entryX=0.408;entryY=0.129;entryDx=0;entryDy=0;entryPerimeter=0;" parent="1" edge="1">
          <mxGeometry width="50" height="50" relative="1" as="geometry">
            <mxPoint x="119.92" y="268.57" as="sourcePoint" />
            <mxPoint x="279.99999999999994" y="268.85999999999996" as="targetPoint" />
          </mxGeometry>
        </mxCell>
        <mxCell id="qHMNKw68laCFIDu4vdMn-12" value="1.0 : Request to go to use management()" style="text;html=1;align=center;verticalAlign=middle;whiteSpace=wrap;rounded=0;" parent="1" vertex="1">
          <mxGeometry x="50" y="235" width="290" height="30" as="geometry" />
        </mxCell>
        <mxCell id="qHMNKw68laCFIDu4vdMn-13" value="2.0&amp;nbsp; : Select user to Manage()" style="text;html=1;align=center;verticalAlign=middle;whiteSpace=wrap;rounded=0;" parent="1" vertex="1">
          <mxGeometry x="20" y="220" width="290" height="30" as="geometry" />
        </mxCell>
        <mxCell id="qHMNKw68laCFIDu4vdMn-14" value="3.0 :edit user profile info&lt;span style=&quot;white-space: pre;&quot;&gt;&#x9;&lt;/span&gt;" style="text;html=1;align=center;verticalAlign=middle;whiteSpace=wrap;rounded=0;" parent="1" vertex="1">
          <mxGeometry x="10" y="205" width="290" height="30" as="geometry" />
        </mxCell>
        <mxCell id="qHMNKw68laCFIDu4vdMn-15" value="&lt;u&gt;:ManageUserProfile&lt;/u&gt;" style="rounded=0;whiteSpace=wrap;html=1;" parent="1" vertex="1">
          <mxGeometry x="680" y="240" width="130" height="80" as="geometry" />
        </mxCell>
        <mxCell id="qHMNKw68laCFIDu4vdMn-18" value="" style="endArrow=none;html=1;rounded=0;entryX=1;entryY=0.5;entryDx=0;entryDy=0;exitX=0;exitY=0.5;exitDx=0;exitDy=0;" parent="1" source="qHMNKw68laCFIDu4vdMn-15" target="qHMNKw68laCFIDu4vdMn-6" edge="1">
          <mxGeometry width="50" height="50" relative="1" as="geometry">
            <mxPoint x="630" y="280" as="sourcePoint" />
            <mxPoint x="440" y="279.40999999999997" as="targetPoint" />
          </mxGeometry>
        </mxCell>
        <mxCell id="qHMNKw68laCFIDu4vdMn-20" value="1.1: Request user list()" style="text;html=1;align=center;verticalAlign=middle;whiteSpace=wrap;rounded=0;" parent="1" vertex="1">
          <mxGeometry x="370" y="250" width="290" height="20" as="geometry" />
        </mxCell>
        <mxCell id="qHMNKw68laCFIDu4vdMn-21" value="" style="endArrow=classic;html=1;rounded=0;entryX=1;entryY=1;entryDx=0;entryDy=0;" parent="1" target="qHMNKw68laCFIDu4vdMn-20" edge="1">
          <mxGeometry width="50" height="50" relative="1" as="geometry">
            <mxPoint x="460" y="270" as="sourcePoint" />
            <mxPoint x="510" y="220" as="targetPoint" />
          </mxGeometry>
        </mxCell>
        <mxCell id="qHMNKw68laCFIDu4vdMn-22" value="2.1: Request profile()" style="text;html=1;align=center;verticalAlign=middle;whiteSpace=wrap;rounded=0;" parent="1" vertex="1">
          <mxGeometry x="370" y="230" width="290" height="20" as="geometry" />
        </mxCell>
        <mxCell id="qHMNKw68laCFIDu4vdMn-23" value="3.1: Pass Details()" style="text;html=1;align=center;verticalAlign=middle;whiteSpace=wrap;rounded=0;" parent="1" vertex="1">
          <mxGeometry x="360" y="210" width="290" height="20" as="geometry" />
        </mxCell>
        <mxCell id="qHMNKw68laCFIDu4vdMn-25" value="" style="endArrow=classic;html=1;rounded=0;exitX=0.795;exitY=0.257;exitDx=0;exitDy=0;exitPerimeter=0;" parent="1" edge="1">
          <mxGeometry width="50" height="50" relative="1" as="geometry">
            <mxPoint x="669.8500000000001" y="290.00000000000006" as="sourcePoint" />
            <mxPoint x="457.7551020408164" y="290.43" as="targetPoint" />
          </mxGeometry>
        </mxCell>
        <mxCell id="qHMNKw68laCFIDu4vdMn-26" value="1.2: Display list()&lt;div&gt;2.2 : Return Profile Info&lt;/div&gt;&lt;div&gt;3.2&amp;nbsp; [ if can edit ] : Display Success&lt;/div&gt;&lt;div&gt;3.2* [ if Cant edit ] : Display can&#39;t edit message&lt;/div&gt;" style="text;html=1;align=center;verticalAlign=middle;whiteSpace=wrap;rounded=0;" parent="1" vertex="1">
          <mxGeometry x="390" y="310" width="290" height="20" as="geometry" />
        </mxCell>
        <mxCell id="qHMNKw68laCFIDu4vdMn-27" value="&lt;u&gt;:ManageUserProfile&lt;/u&gt;" style="rounded=0;whiteSpace=wrap;html=1;" parent="1" vertex="1">
          <mxGeometry x="295" y="650" width="130" height="80" as="geometry" />
        </mxCell>
        <mxCell id="qHMNKw68laCFIDu4vdMn-29" value="" style="endArrow=none;html=1;rounded=0;entryX=0.25;entryY=1;entryDx=0;entryDy=0;exitX=1;exitY=0.25;exitDx=0;exitDy=0;" parent="1" source="qHMNKw68laCFIDu4vdMn-27" target="qHMNKw68laCFIDu4vdMn-15" edge="1">
          <mxGeometry width="50" height="50" relative="1" as="geometry">
            <mxPoint x="430" y="460" as="sourcePoint" />
            <mxPoint x="480" y="410" as="targetPoint" />
          </mxGeometry>
        </mxCell>
        <mxCell id="qHMNKw68laCFIDu4vdMn-31" value="1.1.1 : Fetch List ()&lt;div&gt;2.1.1 : Request Profile Info&lt;/div&gt;&lt;div&gt;3.1.1 : Update Profile&lt;/div&gt;" style="text;html=1;align=center;verticalAlign=middle;whiteSpace=wrap;rounded=0;" parent="1" vertex="1">
          <mxGeometry x="510" y="510" width="290" height="20" as="geometry" />
        </mxCell>
        <mxCell id="qHMNKw68laCFIDu4vdMn-32" value="" style="endArrow=classic;html=1;rounded=0;entryX=0.807;entryY=0.442;entryDx=0;entryDy=0;entryPerimeter=0;" parent="1" target="qHMNKw68laCFIDu4vdMn-2" edge="1">
          <mxGeometry width="50" height="50" relative="1" as="geometry">
            <mxPoint x="480" y="630" as="sourcePoint" />
            <mxPoint x="660.0000000000003" y="410" as="targetPoint" />
          </mxGeometry>
        </mxCell>
        <mxCell id="qHMNKw68laCFIDu4vdMn-33" value="" style="endArrow=classic;html=1;rounded=0;" parent="1" edge="1">
          <mxGeometry width="50" height="50" relative="1" as="geometry">
            <mxPoint x="660" y="360" as="sourcePoint" />
            <mxPoint x="460" y="610" as="targetPoint" />
          </mxGeometry>
        </mxCell>
        <mxCell id="qHMNKw68laCFIDu4vdMn-34" value="1.1.2 : Return List ()&lt;div&gt;2.1.2 : Return Profile info&lt;/div&gt;&lt;div&gt;3.1.2 : Return Success ()&lt;/div&gt;" style="text;html=1;align=center;verticalAlign=middle;whiteSpace=wrap;rounded=0;" parent="1" vertex="1">
          <mxGeometry x="280" y="510" width="290" height="20" as="geometry" />
        </mxCell>
        <mxCell id="7VeogQIgcyyYzKB9-HFZ-1" value="" style="ellipse;shape=umlEntity;whiteSpace=wrap;html=1;" vertex="1" parent="1">
          <mxGeometry x="400" y="660" width="20" height="20" as="geometry" />
        </mxCell>
        <mxCell id="7VeogQIgcyyYzKB9-HFZ-2" value="" style="ellipse;shape=umlControl;whiteSpace=wrap;html=1;" vertex="1" parent="1">
          <mxGeometry x="780" y="245" width="20" height="20" as="geometry" />
        </mxCell>
      </root>
    </mxGraphModel>
  </diagram>
</mxfile>
